<mxfile host="app.diagrams.net" modified="2020-11-09T05:01:35.529Z" agent="5.0 (Windows NT 10.0; Win64; x64) AppleWebKit/537.36 (KHTML, like Gecko) Chrome/86.0.4240.183 Safari/537.36 Edg/86.0.622.63" etag="Y_kW4HVtmPZw5W0Myg-H" version="13.9.2" type="github">
  <diagram id="_5CkWuqMf3LJzgiGWqKs" name="Page-1">
    <mxGraphModel dx="1792" dy="1743" grid="1" gridSize="10" guides="1" tooltips="1" connect="1" arrows="1" fold="1" page="1" pageScale="1" pageWidth="850" pageHeight="1100" math="0" shadow="0">
      <root>
        <mxCell id="0" />
        <mxCell id="1" parent="0" />
        <mxCell id="Cj0m6q7bYbMxQTCFhR2f-8" value="" style="rounded=0;whiteSpace=wrap;html=1;dashed=1;" vertex="1" parent="1">
          <mxGeometry x="-120" y="-50" width="800" height="910" as="geometry" />
        </mxCell>
        <mxCell id="dWvvoxThUH6RWhC0IFGI-32" value="" style="rounded=0;whiteSpace=wrap;html=1;dashed=1;fontFamily=Times New Roman;fontSize=15;" parent="1" vertex="1">
          <mxGeometry x="150" y="-30" width="510" height="870" as="geometry" />
        </mxCell>
        <mxCell id="dWvvoxThUH6RWhC0IFGI-2" value="" style="rounded=0;whiteSpace=wrap;html=1;dashed=1;" parent="1" vertex="1">
          <mxGeometry x="-100" y="-30" width="210" height="870" as="geometry" />
        </mxCell>
        <mxCell id="XMBS7pqL-egp5hLZ02eN-5" value="" style="edgeStyle=orthogonalEdgeStyle;rounded=0;orthogonalLoop=1;jettySize=auto;html=1;fontFamily=Times New Roman;fontStyle=1;fontSize=15;" parent="1" source="XMBS7pqL-egp5hLZ02eN-1" target="XMBS7pqL-egp5hLZ02eN-4" edge="1">
          <mxGeometry relative="1" as="geometry" />
        </mxCell>
        <mxCell id="XMBS7pqL-egp5hLZ02eN-1" value="SAR高度计L1A数据" style="shape=process;whiteSpace=wrap;html=1;backgroundOutline=1;fontFamily=Times New Roman;fontStyle=1;fontSize=15;" parent="1" vertex="1">
          <mxGeometry x="-63" y="24.5" width="140" height="60" as="geometry" />
        </mxCell>
        <mxCell id="XMBS7pqL-egp5hLZ02eN-7" value="" style="edgeStyle=orthogonalEdgeStyle;rounded=0;orthogonalLoop=1;jettySize=auto;html=1;fontFamily=Times New Roman;fontStyle=1;fontSize=15;" parent="1" source="XMBS7pqL-egp5hLZ02eN-4" target="XMBS7pqL-egp5hLZ02eN-6" edge="1">
          <mxGeometry relative="1" as="geometry" />
        </mxCell>
        <mxCell id="XMBS7pqL-egp5hLZ02eN-4" value="系统参数校正、Hamming窗加权、热噪声估计、地面格网加密" style="rounded=0;whiteSpace=wrap;html=1;fontFamily=Times New Roman;fontStyle=1;fontSize=15;" parent="1" vertex="1">
          <mxGeometry x="-78" y="143" width="170" height="60" as="geometry" />
        </mxCell>
        <mxCell id="XMBS7pqL-egp5hLZ02eN-9" value="" style="edgeStyle=orthogonalEdgeStyle;rounded=0;orthogonalLoop=1;jettySize=auto;html=1;fontFamily=Times New Roman;fontStyle=1;fontSize=15;" parent="1" source="XMBS7pqL-egp5hLZ02eN-6" target="XMBS7pqL-egp5hLZ02eN-8" edge="1">
          <mxGeometry relative="1" as="geometry" />
        </mxCell>
        <mxCell id="XMBS7pqL-egp5hLZ02eN-6" value="&lt;span style=&quot;white-space: normal; font-size: 15px;&quot;&gt;多视处理&lt;/span&gt;" style="rounded=0;whiteSpace=wrap;html=1;fontFamily=Times New Roman;fontStyle=1;fontSize=15;" parent="1" vertex="1">
          <mxGeometry x="-53" y="270" width="120" height="60" as="geometry" />
        </mxCell>
        <mxCell id="XMBS7pqL-egp5hLZ02eN-11" value="" style="edgeStyle=orthogonalEdgeStyle;rounded=0;orthogonalLoop=1;jettySize=auto;html=1;fontFamily=Times New Roman;fontStyle=1;fontSize=15;" parent="1" source="XMBS7pqL-egp5hLZ02eN-8" target="XMBS7pqL-egp5hLZ02eN-10" edge="1">
          <mxGeometry relative="1" as="geometry" />
        </mxCell>
        <mxCell id="XMBS7pqL-egp5hLZ02eN-8" value="&lt;span style=&quot;white-space: normal; font-size: 15px;&quot;&gt;波形因子方程、均方波陡调整&lt;/span&gt;" style="rounded=0;whiteSpace=wrap;html=1;fontFamily=Times New Roman;fontStyle=1;fontSize=15;" parent="1" vertex="1">
          <mxGeometry x="-53" y="396" width="120" height="60" as="geometry" />
        </mxCell>
        <mxCell id="XMBS7pqL-egp5hLZ02eN-13" value="" style="edgeStyle=orthogonalEdgeStyle;rounded=0;orthogonalLoop=1;jettySize=auto;html=1;fontFamily=Times New Roman;fontStyle=1;fontSize=15;" parent="1" source="XMBS7pqL-egp5hLZ02eN-10" target="XMBS7pqL-egp5hLZ02eN-12" edge="1">
          <mxGeometry relative="1" as="geometry" />
        </mxCell>
        <mxCell id="XMBS7pqL-egp5hLZ02eN-10" value="Retracking" style="rounded=0;whiteSpace=wrap;html=1;fontFamily=Times New Roman;fontStyle=1;fontSize=15;" parent="1" vertex="1">
          <mxGeometry x="-67.5" y="510" width="149" height="60" as="geometry" />
        </mxCell>
        <mxCell id="XMBS7pqL-egp5hLZ02eN-15" value="" style="edgeStyle=orthogonalEdgeStyle;rounded=0;orthogonalLoop=1;jettySize=auto;html=1;fontFamily=Times New Roman;fontStyle=1;fontSize=15;" parent="1" source="XMBS7pqL-egp5hLZ02eN-12" target="XMBS7pqL-egp5hLZ02eN-14" edge="1">
          <mxGeometry relative="1" as="geometry" />
        </mxCell>
        <mxCell id="XMBS7pqL-egp5hLZ02eN-12" value="&lt;span style=&quot;white-space: normal; font-size: 15px;&quot;&gt;海面有效波高&lt;/span&gt;" style="rounded=0;whiteSpace=wrap;html=1;fontFamily=Times New Roman;fontStyle=1;fontSize=15;" parent="1" vertex="1">
          <mxGeometry x="-53" y="613" width="120" height="60" as="geometry" />
        </mxCell>
        <mxCell id="XMBS7pqL-egp5hLZ02eN-57" style="edgeStyle=orthogonalEdgeStyle;rounded=0;orthogonalLoop=1;jettySize=auto;html=1;exitX=1;exitY=0.5;exitDx=0;exitDy=0;fontFamily=Times New Roman;fontStyle=1;fontSize=15;entryX=0;entryY=0.5;entryDx=0;entryDy=0;" parent="1" source="XMBS7pqL-egp5hLZ02eN-12" target="XMBS7pqL-egp5hLZ02eN-34" edge="1">
          <mxGeometry relative="1" as="geometry">
            <Array as="points">
              <mxPoint x="120" y="643" />
              <mxPoint x="120" y="173" />
            </Array>
          </mxGeometry>
        </mxCell>
        <mxCell id="XMBS7pqL-egp5hLZ02eN-14" value="&lt;span style=&quot;white-space: normal; font-size: 15px;&quot;&gt;验潮站数据对比&lt;/span&gt;" style="rounded=0;whiteSpace=wrap;html=1;fontFamily=Times New Roman;fontStyle=1;fontSize=15;" parent="1" vertex="1">
          <mxGeometry x="-53" y="718" width="120" height="60" as="geometry" />
        </mxCell>
        <mxCell id="dWvvoxThUH6RWhC0IFGI-25" style="edgeStyle=orthogonalEdgeStyle;rounded=0;orthogonalLoop=1;jettySize=auto;html=1;entryX=0.5;entryY=0;entryDx=0;entryDy=0;fontFamily=Times New Roman;fontSize=15;" parent="1" source="XMBS7pqL-egp5hLZ02eN-31" target="XMBS7pqL-egp5hLZ02eN-34" edge="1">
          <mxGeometry relative="1" as="geometry" />
        </mxCell>
        <mxCell id="dWvvoxThUH6RWhC0IFGI-29" style="edgeStyle=orthogonalEdgeStyle;rounded=0;orthogonalLoop=1;jettySize=auto;html=1;fontFamily=Times New Roman;fontSize=15;exitX=0.5;exitY=1;exitDx=0;exitDy=0;" parent="1" source="XMBS7pqL-egp5hLZ02eN-30" target="XMBS7pqL-egp5hLZ02eN-34" edge="1">
          <mxGeometry relative="1" as="geometry">
            <Array as="points">
              <mxPoint x="240" y="120" />
              <mxPoint x="410" y="120" />
            </Array>
          </mxGeometry>
        </mxCell>
        <mxCell id="XMBS7pqL-egp5hLZ02eN-30" value="传统测高数据&lt;br&gt;验潮站数据&lt;br&gt;星载GNSS-R&lt;br&gt;……" style="shape=process;whiteSpace=wrap;html=1;backgroundOutline=1;fontFamily=Times New Roman;fontStyle=1;fontSize=15;" parent="1" vertex="1">
          <mxGeometry x="180" y="24.5" width="120" height="77" as="geometry" />
        </mxCell>
        <mxCell id="dWvvoxThUH6RWhC0IFGI-26" style="edgeStyle=orthogonalEdgeStyle;rounded=0;orthogonalLoop=1;jettySize=auto;html=1;entryX=0.5;entryY=0;entryDx=0;entryDy=0;fontFamily=Times New Roman;fontSize=15;" parent="1" source="XMBS7pqL-egp5hLZ02eN-31" target="XMBS7pqL-egp5hLZ02eN-34" edge="1">
          <mxGeometry relative="1" as="geometry" />
        </mxCell>
        <mxCell id="XMBS7pqL-egp5hLZ02eN-36" value="" style="edgeStyle=orthogonalEdgeStyle;rounded=0;orthogonalLoop=1;jettySize=auto;html=1;fontFamily=Times New Roman;fontStyle=1;fontSize=15;" parent="1" source="XMBS7pqL-egp5hLZ02eN-34" target="XMBS7pqL-egp5hLZ02eN-35" edge="1">
          <mxGeometry relative="1" as="geometry" />
        </mxCell>
        <mxCell id="dWvvoxThUH6RWhC0IFGI-6" style="edgeStyle=orthogonalEdgeStyle;rounded=0;orthogonalLoop=1;jettySize=auto;html=1;entryX=0.5;entryY=0;entryDx=0;entryDy=0;" parent="1" source="XMBS7pqL-egp5hLZ02eN-34" target="dWvvoxThUH6RWhC0IFGI-5" edge="1">
          <mxGeometry relative="1" as="geometry" />
        </mxCell>
        <mxCell id="XMBS7pqL-egp5hLZ02eN-34" value="&lt;span style=&quot;white-space: normal; font-size: 15px;&quot;&gt;基准统一、噪声剔除&lt;/span&gt;" style="rounded=0;whiteSpace=wrap;html=1;fontFamily=Times New Roman;fontStyle=1;fontSize=15;" parent="1" vertex="1">
          <mxGeometry x="340" y="143" width="140" height="60" as="geometry" />
        </mxCell>
        <mxCell id="XMBS7pqL-egp5hLZ02eN-38" value="" style="edgeStyle=orthogonalEdgeStyle;rounded=0;orthogonalLoop=1;jettySize=auto;html=1;entryX=0.5;entryY=0;entryDx=0;entryDy=0;fontFamily=Times New Roman;fontStyle=1;fontSize=15;" parent="1" source="XMBS7pqL-egp5hLZ02eN-35" target="XMBS7pqL-egp5hLZ02eN-41" edge="1">
          <mxGeometry relative="1" as="geometry">
            <mxPoint x="320" y="339" as="targetPoint" />
          </mxGeometry>
        </mxCell>
        <mxCell id="XMBS7pqL-egp5hLZ02eN-35" value="重力场球谐展开" style="rounded=0;whiteSpace=wrap;html=1;fontFamily=Times New Roman;fontStyle=1;fontSize=15;" parent="1" vertex="1">
          <mxGeometry x="200" y="243" width="160" height="60" as="geometry" />
        </mxCell>
        <mxCell id="XMBS7pqL-egp5hLZ02eN-59" value="" style="edgeStyle=orthogonalEdgeStyle;rounded=0;orthogonalLoop=1;jettySize=auto;html=1;fontFamily=Times New Roman;fontStyle=1;fontSize=15;entryX=0.5;entryY=0;entryDx=0;entryDy=0;" parent="1" source="XMBS7pqL-egp5hLZ02eN-41" target="j7Tv1Ie19FKrfCCoHS4v-1" edge="1">
          <mxGeometry relative="1" as="geometry" />
        </mxCell>
        <mxCell id="XMBS7pqL-egp5hLZ02eN-41" value="&lt;span style=&quot;white-space: normal ; font-size: 15px&quot;&gt;累积误差分析&lt;br&gt;频谱分割&lt;br&gt;CS1,CS2,CS3,CS4&lt;br style=&quot;font-size: 15px&quot;&gt;&lt;/span&gt;" style="rounded=0;whiteSpace=wrap;html=1;fontFamily=Times New Roman;fontStyle=1;fontSize=15;" parent="1" vertex="1">
          <mxGeometry x="220" y="351" width="120" height="60" as="geometry" />
        </mxCell>
        <mxCell id="XMBS7pqL-egp5hLZ02eN-43" value="精化MDT及误差分布" style="rounded=0;whiteSpace=wrap;html=1;fontFamily=Times New Roman;fontStyle=1;fontSize=15;" parent="1" vertex="1">
          <mxGeometry x="350" y="748" width="120" height="60" as="geometry" />
        </mxCell>
        <mxCell id="XMBS7pqL-egp5hLZ02eN-47" value="海洋环流分析" style="rounded=0;whiteSpace=wrap;html=1;fontFamily=Times New Roman;fontStyle=1;fontSize=15;" parent="1" vertex="1">
          <mxGeometry x="490" y="748" width="120" height="60" as="geometry" />
        </mxCell>
        <mxCell id="XMBS7pqL-egp5hLZ02eN-45" value="&lt;span style=&quot;white-space: normal; font-size: 15px;&quot;&gt;外部数据检核&lt;/span&gt;" style="rounded=0;whiteSpace=wrap;html=1;fontFamily=Times New Roman;fontStyle=1;fontSize=15;" parent="1" vertex="1">
          <mxGeometry x="210" y="748" width="120" height="60" as="geometry" />
        </mxCell>
        <mxCell id="dWvvoxThUH6RWhC0IFGI-4" value="" style="edgeStyle=orthogonalEdgeStyle;rounded=0;orthogonalLoop=1;jettySize=auto;html=1;" parent="1" source="j7Tv1Ie19FKrfCCoHS4v-1" target="dWvvoxThUH6RWhC0IFGI-3" edge="1">
          <mxGeometry relative="1" as="geometry" />
        </mxCell>
        <mxCell id="j7Tv1Ie19FKrfCCoHS4v-1" value="&lt;b&gt;分段约束&lt;br&gt;考拉方程平滑&lt;br&gt;&lt;/b&gt;" style="rounded=0;whiteSpace=wrap;html=1;fontFamily=Times New Roman;fontSize=15;" parent="1" vertex="1">
          <mxGeometry x="220" y="459" width="120" height="60" as="geometry" />
        </mxCell>
        <mxCell id="dWvvoxThUH6RWhC0IFGI-17" value="" style="edgeStyle=orthogonalEdgeStyle;rounded=0;orthogonalLoop=1;jettySize=auto;html=1;entryX=0.5;entryY=0;entryDx=0;entryDy=0;" parent="1" source="dWvvoxThUH6RWhC0IFGI-3" target="dWvvoxThUH6RWhC0IFGI-20" edge="1">
          <mxGeometry relative="1" as="geometry">
            <mxPoint x="410" y="650" as="targetPoint" />
            <Array as="points">
              <mxPoint x="280" y="630" />
              <mxPoint x="410" y="630" />
            </Array>
          </mxGeometry>
        </mxCell>
        <mxCell id="dWvvoxThUH6RWhC0IFGI-3" value="随机误差建模&lt;br&gt;遗漏误差建模&lt;br&gt;全方差协方差函数" style="whiteSpace=wrap;html=1;rounded=0;fontFamily=Times New Roman;fontSize=15;fontStyle=1" parent="1" vertex="1">
          <mxGeometry x="215" y="553" width="130" height="60" as="geometry" />
        </mxCell>
        <mxCell id="dWvvoxThUH6RWhC0IFGI-8" value="" style="edgeStyle=orthogonalEdgeStyle;rounded=0;orthogonalLoop=1;jettySize=auto;html=1;" parent="1" source="dWvvoxThUH6RWhC0IFGI-5" target="dWvvoxThUH6RWhC0IFGI-7" edge="1">
          <mxGeometry relative="1" as="geometry" />
        </mxCell>
        <mxCell id="dWvvoxThUH6RWhC0IFGI-5" value="MDT参数化" style="rounded=0;whiteSpace=wrap;html=1;fontFamily=Times New Roman;fontStyle=1;fontSize=15;" parent="1" vertex="1">
          <mxGeometry x="470" y="243" width="120" height="60" as="geometry" />
        </mxCell>
        <mxCell id="dWvvoxThUH6RWhC0IFGI-10" value="" style="edgeStyle=orthogonalEdgeStyle;rounded=0;orthogonalLoop=1;jettySize=auto;html=1;" parent="1" source="dWvvoxThUH6RWhC0IFGI-7" target="dWvvoxThUH6RWhC0IFGI-9" edge="1">
          <mxGeometry relative="1" as="geometry" />
        </mxCell>
        <mxCell id="dWvvoxThUH6RWhC0IFGI-7" value="局部坐标系及仿射变换" style="rounded=0;whiteSpace=wrap;html=1;fontFamily=Times New Roman;fontSize=15;fontStyle=1" parent="1" vertex="1">
          <mxGeometry x="470" y="351" width="120" height="60" as="geometry" />
        </mxCell>
        <mxCell id="dWvvoxThUH6RWhC0IFGI-13" value="" style="edgeStyle=orthogonalEdgeStyle;rounded=0;orthogonalLoop=1;jettySize=auto;html=1;" parent="1" source="dWvvoxThUH6RWhC0IFGI-9" target="dWvvoxThUH6RWhC0IFGI-12" edge="1">
          <mxGeometry relative="1" as="geometry" />
        </mxCell>
        <mxCell id="dWvvoxThUH6RWhC0IFGI-9" value="基于4参/16参构建LBF" style="whiteSpace=wrap;html=1;rounded=0;fontFamily=Times New Roman;fontStyle=1;fontSize=15;" parent="1" vertex="1">
          <mxGeometry x="470" y="459" width="120" height="60" as="geometry" />
        </mxCell>
        <mxCell id="dWvvoxThUH6RWhC0IFGI-15" style="edgeStyle=orthogonalEdgeStyle;rounded=0;orthogonalLoop=1;jettySize=auto;html=1;entryX=0.5;entryY=0;entryDx=0;entryDy=0;exitX=0.5;exitY=1;exitDx=0;exitDy=0;" parent="1" source="dWvvoxThUH6RWhC0IFGI-12" target="dWvvoxThUH6RWhC0IFGI-20" edge="1">
          <mxGeometry relative="1" as="geometry">
            <mxPoint x="410" y="650" as="targetPoint" />
            <Array as="points">
              <mxPoint x="530" y="630" />
              <mxPoint x="410" y="630" />
            </Array>
          </mxGeometry>
        </mxCell>
        <mxCell id="dWvvoxThUH6RWhC0IFGI-12" value="参数化系数矩阵" style="whiteSpace=wrap;html=1;rounded=0;fontStyle=1;fontFamily=Times New Roman;fontSize=15;" parent="1" vertex="1">
          <mxGeometry x="470" y="553" width="120" height="60" as="geometry" />
        </mxCell>
        <mxCell id="dWvvoxThUH6RWhC0IFGI-22" value="" style="edgeStyle=orthogonalEdgeStyle;rounded=0;orthogonalLoop=1;jettySize=auto;html=1;" parent="1" source="dWvvoxThUH6RWhC0IFGI-20" target="XMBS7pqL-egp5hLZ02eN-43" edge="1">
          <mxGeometry relative="1" as="geometry" />
        </mxCell>
        <mxCell id="Cj0m6q7bYbMxQTCFhR2f-2" style="edgeStyle=orthogonalEdgeStyle;rounded=0;orthogonalLoop=1;jettySize=auto;html=1;" edge="1" parent="1" source="dWvvoxThUH6RWhC0IFGI-20" target="XMBS7pqL-egp5hLZ02eN-45">
          <mxGeometry relative="1" as="geometry">
            <Array as="points">
              <mxPoint x="410" y="728" />
              <mxPoint x="270" y="728" />
            </Array>
          </mxGeometry>
        </mxCell>
        <mxCell id="Cj0m6q7bYbMxQTCFhR2f-4" style="edgeStyle=orthogonalEdgeStyle;rounded=0;orthogonalLoop=1;jettySize=auto;html=1;exitX=0.5;exitY=1;exitDx=0;exitDy=0;" edge="1" parent="1" source="dWvvoxThUH6RWhC0IFGI-20" target="XMBS7pqL-egp5hLZ02eN-47">
          <mxGeometry relative="1" as="geometry">
            <Array as="points">
              <mxPoint x="410" y="728" />
              <mxPoint x="550" y="728" />
            </Array>
          </mxGeometry>
        </mxCell>
        <mxCell id="dWvvoxThUH6RWhC0IFGI-20" value="舒尔分解" style="whiteSpace=wrap;html=1;rounded=0;fontFamily=Times New Roman;fontSize=15;" parent="1" vertex="1">
          <mxGeometry x="350" y="658" width="120" height="60" as="geometry" />
        </mxCell>
        <mxCell id="dWvvoxThUH6RWhC0IFGI-23" value="" style="shape=image;verticalLabelPosition=bottom;labelBackgroundColor=#ffffff;verticalAlign=top;aspect=fixed;imageAspect=0;image=data:image/png,iVBORw0KGgoAAAANSUhEUgAAAHoAAAAeCAYAAADjPAqoAAADjUlEQVRoBe1aDZKeIAz1XByI83AaLsNh0gkQJQgRPhHtLJ3pdDVCkvfyB9sN1p8/gcD2hpfOKNi0fUP1n9U5nWhP8rYtoieH3HSi0b+V0ZNZBoBF9HzMX9HIibYaNiyrnX972+3K6Plcc6KxrCZkK+Nki5wFozY4vnP+uRgoSTQsogOsRZwqSSYTcS09Ee2XdJFtQF8FRGbHIjoDZMJjmWhUbDWoGF1HxpYscmBM31FpEV3C8dl3daK7yO4wMqkW6yzdgdvNT2WinyL7jtE4F2gFalOQdgxnQgVSySxwR82MtVYfg+9RNR1YrcJArDT01cq61ddE41pnGst4XdEQSWKHH2Qiqb4V0BDzHxHtMYk+BbMxiA1YF+8atg1GudNGNFrke/a4CLtFvDOgPbEaLAKlLVycD26pyxezwKIAq/x7ZGq+S3gOeyGuzpNMfoRs51WrvEPb20ai8dg0TmmbafJXO9jKTCVZtqpXGo+jmMU6TaL4fqBvTURjzxhVQnqhqH4fS95VxlTXf0Gwt6IM3wd8uyQaM+eTYBJIA6N+Ovd0AsmyiKpV9vqWeTLR2JdHartlKl9sjQHjp9a05PFvnnoiIlputqQkqfXh8H6sX3WiMWNas8VZPymmwKZHBwZIDJyavCmurAlHq5gRtMY5x/p1TQed32ty2i/1Z/zP1J/zA5QNg2bBiJq96E9NRttUiLagO85weIZNz7QBlOAIKcJ3vA3kcnyuD3zeEQw8nLh3ZQcoeEef6nrChqFk1/rwHrwOsGrRFH7tj4xngWgZcO6sg3BRUSIIgyUaSuRQJvpNkmCK750x1QsCKpd5KQyRjMMMhyTYOdYG7vu9p+BPAbdItNI5yahP8kfG80R0rQSw8ns6Mxb6Cfb3mHno1CnbdjkGVmH9PRzD6l1HqCav2DDCD9pD8meXlfHkRNMUeCLyuKorEk6ZSwb5+5V0zTlyWUAV1idb/fwj05FdmeKmTP6QDT8bX1jI7M38YbKCL5zowua/vUpKDN74nDIWe2vMYuxVp1T7TStf9QUbuEX3niR/rvF8hGg+dMF5qMDKsZNrwWCJtxo6f9sp4vYFG0QDO4WiPw14PkD01TCHcn5Z7yz+0mRkn/6CDZ1Mip9L/rThOZZouq3yPb5AHJOnPXzgf/9lOl6yQSStUyj5w2QynmOJ7vRhfT4PgUX0PKxf1bSIfhX+ecoX0fOwflXTP7EZCRjPxCs+AAAAAElFTkSuQmCC;fontFamily=Times New Roman;fontSize=15;" parent="1" vertex="1">
          <mxGeometry x="364.5" y="676.81" width="91" height="22.38" as="geometry" />
        </mxCell>
        <mxCell id="dWvvoxThUH6RWhC0IFGI-24" value="舒尔分解" style="text;html=1;align=center;verticalAlign=middle;resizable=0;points=[];autosize=1;fontFamily=Times New Roman;fontSize=15;" parent="1" vertex="1">
          <mxGeometry x="410" y="638" width="80" height="20" as="geometry" />
        </mxCell>
        <mxCell id="dWvvoxThUH6RWhC0IFGI-30" style="edgeStyle=orthogonalEdgeStyle;rounded=0;orthogonalLoop=1;jettySize=auto;html=1;entryX=0.5;entryY=0;entryDx=0;entryDy=0;fontFamily=Times New Roman;fontSize=15;exitX=0.5;exitY=1;exitDx=0;exitDy=0;" parent="1" source="dWvvoxThUH6RWhC0IFGI-27" target="XMBS7pqL-egp5hLZ02eN-34" edge="1">
          <mxGeometry relative="1" as="geometry">
            <Array as="points">
              <mxPoint x="580" y="120" />
              <mxPoint x="410" y="120" />
            </Array>
          </mxGeometry>
        </mxCell>
        <mxCell id="dWvvoxThUH6RWhC0IFGI-27" value="&lt;span style=&quot;white-space: normal ; font-size: 15px&quot;&gt;机载重力数据&lt;/span&gt;" style="shape=process;whiteSpace=wrap;html=1;backgroundOutline=1;fontFamily=Times New Roman;fontSize=15;fontColor=#000000;align=center;strokeColor=#000000;fillColor=#ffffff;fontStyle=1" parent="1" vertex="1">
          <mxGeometry x="520" y="33" width="120" height="60" as="geometry" />
        </mxCell>
        <mxCell id="XMBS7pqL-egp5hLZ02eN-31" value="&lt;span style=&quot;white-space: normal ; font-size: 15px&quot;&gt;GOCE重力场模型&lt;/span&gt;" style="shape=process;whiteSpace=wrap;html=1;backgroundOutline=1;fontFamily=Times New Roman;fontSize=15;fontColor=#000000;align=center;strokeColor=#000000;fillColor=#ffffff;fontStyle=1" parent="1" vertex="1">
          <mxGeometry x="350" y="33" width="120" height="60" as="geometry" />
        </mxCell>
        <mxCell id="dWvvoxThUH6RWhC0IFGI-34" value="SAR 测高获取海岸带海面信息" style="text;html=1;strokeColor=none;fillColor=none;align=center;verticalAlign=middle;whiteSpace=wrap;rounded=0;dashed=1;fontFamily=Times New Roman;fontSize=15;fontStyle=1" parent="1" vertex="1">
          <mxGeometry x="-96.5" y="-10" width="203" height="20" as="geometry" />
        </mxCell>
        <mxCell id="Cj0m6q7bYbMxQTCFhR2f-1" value="严格融合算法" style="text;html=1;strokeColor=none;fillColor=none;align=center;verticalAlign=middle;whiteSpace=wrap;rounded=0;dashed=1;fontFamily=Times New Roman;fontSize=15;fontStyle=1" vertex="1" parent="1">
          <mxGeometry x="308.5" y="-10" width="203" height="20" as="geometry" />
        </mxCell>
        <mxCell id="Cj0m6q7bYbMxQTCFhR2f-6" value="" style="rounded=0;whiteSpace=wrap;html=1;dashed=1;" vertex="1" parent="1">
          <mxGeometry x="-120" y="890" width="800" height="140" as="geometry" />
        </mxCell>
        <mxCell id="Cj0m6q7bYbMxQTCFhR2f-7" value="" style="shape=flexArrow;endArrow=classic;html=1;entryX=0.5;entryY=0;entryDx=0;entryDy=0;exitX=0.5;exitY=1;exitDx=0;exitDy=0;" edge="1" parent="1" source="Cj0m6q7bYbMxQTCFhR2f-8" target="Cj0m6q7bYbMxQTCFhR2f-6">
          <mxGeometry width="50" height="50" relative="1" as="geometry">
            <mxPoint x="280" y="850" as="sourcePoint" />
            <mxPoint x="280" y="850" as="targetPoint" />
          </mxGeometry>
        </mxCell>
        <mxCell id="Cj0m6q7bYbMxQTCFhR2f-9" value="海岸带MDT误差分析" style="rounded=0;whiteSpace=wrap;html=1;fontFamily=Times New Roman;fontSize=15;fontStyle=1" vertex="1" parent="1">
          <mxGeometry x="98" y="940" width="150" height="60" as="geometry" />
        </mxCell>
        <mxCell id="Cj0m6q7bYbMxQTCFhR2f-10" value="南海MDT精化及其洋流分布" style="text;html=1;strokeColor=none;fillColor=none;align=center;verticalAlign=middle;whiteSpace=wrap;rounded=0;dashed=1;fontFamily=Times New Roman;fontSize=15;fontStyle=1" vertex="1" parent="1">
          <mxGeometry x="182" y="900" width="203" height="20" as="geometry" />
        </mxCell>
        <mxCell id="Cj0m6q7bYbMxQTCFhR2f-11" value="洋流分布及浮标数据验证" style="rounded=0;whiteSpace=wrap;html=1;fontFamily=Times New Roman;fontSize=15;fontStyle=1" vertex="1" parent="1">
          <mxGeometry x="281" y="940" width="170" height="60" as="geometry" />
        </mxCell>
        <mxCell id="Cj0m6q7bYbMxQTCFhR2f-12" value="与气候变化相关性分析" style="rounded=0;whiteSpace=wrap;html=1;fontFamily=Times New Roman;fontSize=15;fontStyle=1" vertex="1" parent="1">
          <mxGeometry x="486" y="940" width="170" height="60" as="geometry" />
        </mxCell>
        <mxCell id="Cj0m6q7bYbMxQTCFhR2f-13" value="南海高精度MDT模型" style="rounded=0;whiteSpace=wrap;html=1;fontFamily=Times New Roman;fontSize=15;fontStyle=1" vertex="1" parent="1">
          <mxGeometry x="-89" y="940" width="150" height="60" as="geometry" />
        </mxCell>
      </root>
    </mxGraphModel>
  </diagram>
</mxfile>
